<svg width="76" height="76" viewBox="0 0 76 76" fill="none" xmlns="http://www.w3.org/2000/svg">
<path d="M34.9101 28.7325H41.0901V22.5525H34.9101M38.0001 62.7225C24.3732 62.7225 13.2801 51.6294 13.2801 38.0025C13.2801 24.3756 24.3732 13.2825 38.0001 13.2825C51.627 13.2825 62.7201 24.3756 62.7201 38.0025C62.7201 51.6294 51.627 62.7225 38.0001 62.7225ZM38.0001 7.10254C33.9422 7.10254 29.9241 7.90179 26.1752 9.45466C22.4262 11.0075 19.0198 13.2836 16.1505 16.1529C10.3556 21.9478 7.1001 29.8073 7.1001 38.0025C7.1001 46.1977 10.3556 54.0573 16.1505 59.8521C19.0198 62.7215 22.4262 64.9975 26.1752 66.5504C29.9241 68.1033 33.9422 68.9025 38.0001 68.9025C46.1953 68.9025 54.0548 65.647 59.8497 59.8521C65.6446 54.0573 68.9001 46.1977 68.9001 38.0025C68.9001 33.9447 68.1008 29.9266 66.548 26.1776C64.9951 22.4287 62.719 19.0223 59.8497 16.1529C56.9804 13.2836 53.574 11.0075 49.825 9.45466C46.076 7.90179 42.0579 7.10254 38.0001 7.10254ZM34.9101 53.4525H41.0901V34.9125H34.9101V53.4525Z" fill="#282222"/>
</svg>
