<svg width="83" height="83" viewBox="0 0 83 83" fill="none" xmlns="http://www.w3.org/2000/svg">
<path d="M67.0558 8.27588H23.6102C20.899 8.27588 18.2989 9.35289 16.3818 11.27C14.4647 13.1871 13.3877 15.7872 13.3877 18.4984V72.1665C13.3877 72.8443 13.6569 73.4943 14.1362 73.9736C14.6155 74.4529 15.2655 74.7221 15.9433 74.7221H61.9446C62.6224 74.7221 63.2724 74.4529 63.7517 73.9736C64.2309 73.4943 64.5002 72.8443 64.5002 72.1665C64.5002 71.4887 64.2309 70.8387 63.7517 70.3594C63.2724 69.8801 62.6224 69.6109 61.9446 69.6109H18.4989C18.4989 68.2553 19.0375 66.9552 19.996 65.9967C20.9545 65.0381 22.2546 64.4996 23.6102 64.4996H67.0558C67.7336 64.4996 68.3836 64.2304 68.8629 63.7511C69.3422 63.2718 69.6114 62.6218 69.6114 61.944V10.8315C69.6114 10.1537 69.3422 9.50368 68.8629 9.0244C68.3836 8.54513 67.7336 8.27588 67.0558 8.27588ZM64.5002 59.3884H23.6102C21.8153 59.3859 20.0518 59.8588 18.4989 60.7588V18.4984C18.4989 17.1428 19.0375 15.8427 19.996 14.8842C20.9545 13.9256 22.2546 13.3871 23.6102 13.3871H64.5002V59.3884Z" fill="#282222"/>
</svg>
