<svg width="82" height="82" viewBox="0 0 82 82" fill="none" xmlns="http://www.w3.org/2000/svg">
<path d="M42.5682 5.67324C42.1135 5.31874 41.5535 5.12622 40.9769 5.12622C40.4004 5.12622 39.8403 5.31874 39.3856 5.67324L2.5625 34.3861L5.74769 38.4143L10.25 34.9037V66.6249C10.2527 67.9833 10.7935 69.2853 11.7541 70.2458C12.7146 71.2063 14.0166 71.7472 15.375 71.7499H66.625C67.9834 71.7472 69.2854 71.2063 70.2459 70.2458C71.2065 69.2853 71.7473 67.9833 71.75 66.6249V34.9267L76.2523 38.4374L79.4375 34.4091L42.5682 5.67324ZM46.125 66.6249H35.875V46.1249H46.125V66.6249ZM51.25 66.6249V46.1249C51.2486 44.766 50.7083 43.4633 49.7474 42.5024C48.7866 41.5416 47.4838 41.0012 46.125 40.9999H35.875C34.5162 41.0012 33.2134 41.5416 32.2526 42.5024C31.2917 43.4633 30.7514 44.766 30.75 46.1249V66.6249H15.375V30.9087L41 10.9469L66.625 30.9344V66.6249H51.25Z" fill="#282222"/>
</svg>
