<svg width="54" height="52" viewBox="0 0 54 52" fill="none" xmlns="http://www.w3.org/2000/svg">
<path d="M27 4.33325C14.5733 4.33325 4.5 14.0334 4.5 25.9999C4.5 37.9664 14.5733 47.6666 27 47.6666C39.4267 47.6666 49.5 37.9664 49.5 25.9999C49.5 14.0334 39.4267 4.33325 27 4.33325Z" stroke="black" stroke-width="3" stroke-linecap="round" stroke-linejoin="round"/>
<path d="M9.60974 39.7497C9.60974 39.7497 14.625 33.5833 27 33.5833C39.375 33.5833 44.3925 39.7497 44.3925 39.7497M27 26C28.7902 26 30.5071 25.3152 31.773 24.0962C33.0388 22.8772 33.75 21.2239 33.75 19.5C33.75 17.7761 33.0388 16.1228 31.773 14.9038C30.5071 13.6848 28.7902 13 27 13C25.2098 13 23.4929 13.6848 22.227 14.9038C20.9611 16.1228 20.25 17.7761 20.25 19.5C20.25 21.2239 20.9611 22.8772 22.227 24.0962C23.4929 25.3152 25.2098 26 27 26Z" stroke="black" stroke-width="3" stroke-linecap="round" stroke-linejoin="round"/>
</svg>
