<svg width="84" height="84" viewBox="0 0 84 84" fill="none" xmlns="http://www.w3.org/2000/svg">
<path fill-rule="evenodd" clip-rule="evenodd" d="M38.3114 21.5442L42.7834 17.0722C46.3834 13.4666 52.7057 10.9679 58.9832 10.0679C61.7664 9.6343 64.5969 9.59666 67.3906 9.9561C69.867 10.325 71.3819 11.0517 72.0862 11.7617C72.7961 12.466 73.5228 13.9809 73.8918 16.4573C74.2495 18.8442 74.2216 21.7678 73.78 24.8646C72.8856 31.1422 70.3813 37.4645 66.7757 41.0645L41.9226 65.9232L35.5164 59.517C35.2569 59.2572 34.9488 59.051 34.6096 58.9102C34.2704 58.7694 33.9068 58.6968 33.5395 58.6966C33.1723 58.6963 32.8086 58.7684 32.4692 58.9087C32.1298 59.049 31.8214 59.2547 31.5615 59.5143C31.0367 60.0383 30.7415 60.7494 30.741 61.4911C30.7407 61.8584 30.8128 62.2221 30.9531 62.5615C31.0934 62.9009 31.2992 63.2093 31.5587 63.4692L39.9437 71.8542C40.2033 72.1145 40.5118 72.321 40.8513 72.4619C41.1909 72.6028 41.5549 72.6753 41.9226 72.6753C42.2902 72.6753 42.6542 72.6028 42.9938 72.4619C43.3334 72.321 43.6418 72.1145 43.9014 71.8542L46.9592 68.7909L53.4995 79.697C53.7176 80.0621 54.0161 80.3727 54.3724 80.605C54.7287 80.8374 55.1333 80.9853 55.5554 81.0376C55.9776 81.0899 56.4061 81.0452 56.8083 80.9068C57.2105 80.7684 57.5758 80.5401 57.8764 80.2392L69.0564 69.0592C69.3634 68.7517 69.5945 68.3769 69.7313 67.9645C69.8682 67.5521 69.9069 67.1134 69.8446 66.6834L67.2453 48.5047L70.7334 45.0222C75.5129 40.2371 78.3247 32.5844 79.3141 25.6528C79.8172 22.1479 79.8731 18.6653 79.4203 15.6244C78.9731 12.6728 77.9893 9.75486 76.0439 7.80395C74.093 5.85863 71.175 4.8692 68.2179 4.42759C64.8886 3.98929 61.5138 4.02694 58.1951 4.53939C51.2579 5.51764 43.5996 8.32941 38.8257 13.1089L35.3431 16.597L17.1644 13.9977C16.7344 13.9353 16.2958 13.9741 15.8834 14.1109C15.471 14.2478 15.0962 14.4789 14.7887 14.7859L3.60869 25.9659C3.30778 26.2665 3.07944 26.6318 2.94108 27.034C2.80271 27.4362 2.75797 27.8647 2.81027 28.2868C2.86256 28.709 3.01051 29.1136 3.24284 29.4699C3.47516 29.8262 3.78575 30.1247 4.15092 30.3428L15.0514 36.8831L11.9937 39.9409C11.7334 40.2005 11.5269 40.5089 11.386 40.8485C11.2451 41.1881 11.1726 41.5521 11.1726 41.9197C11.1726 42.2874 11.2451 42.6514 11.386 42.991C11.5269 43.3305 11.7334 43.639 11.9937 43.8986L20.3787 52.2836C20.6386 52.5435 20.9471 52.7496 21.2866 52.8902C21.6261 53.0309 21.99 53.1033 22.3576 53.1033C22.7251 53.1033 23.089 53.0309 23.4285 52.8902C23.768 52.7496 24.0766 52.5435 24.3364 52.2836C24.5963 52.0237 24.8024 51.7152 24.9431 51.3757C25.0837 51.0361 25.1561 50.6722 25.1561 50.3047C25.1561 49.9372 25.0837 49.5733 24.9431 49.2338C24.8024 48.8942 24.5963 48.5857 24.3364 48.3259L17.9247 41.9253L21.5414 38.3142L38.3114 21.5442ZM56.451 73.7548L51.0287 64.7157L62.3037 53.4463L64.1149 66.0909L56.451 73.7548ZM19.1321 32.8136L30.4016 21.5442L17.757 19.733L10.0987 27.3913L19.1321 32.8136ZM13.1508 57.8792C13.4107 57.6197 13.6169 57.3115 13.7577 56.9723C13.8985 56.6331 13.9711 56.2695 13.9713 55.9023C13.9716 55.535 13.8995 55.1713 13.7592 54.832C13.6189 54.4926 13.4131 54.1841 13.1536 53.9242C12.8941 53.6644 12.586 53.4582 12.2468 53.3174C11.9076 53.1766 11.544 53.104 11.1767 53.1038C10.8095 53.1035 10.4458 53.1756 10.1064 53.3159C9.767 53.4562 9.45856 53.662 9.1987 53.9215L3.60869 59.5115C3.08461 60.0363 2.79048 60.7478 2.791 61.4895C2.79152 62.2312 3.08666 62.9423 3.61149 63.4664C4.13632 63.9905 4.84784 64.2846 5.58953 64.2841C6.33122 64.2836 7.04233 63.9884 7.56642 63.4636L13.1508 57.8792ZM21.5358 66.2642C21.8028 66.0063 22.0157 65.6979 22.1622 65.3569C22.3087 65.0159 22.3858 64.6492 22.389 64.2781C22.3922 63.9069 22.3215 63.5389 22.181 63.1954C22.0404 62.8519 21.8329 62.5398 21.5705 62.2774C21.308 62.015 20.996 61.8074 20.6525 61.6669C20.309 61.5264 19.9409 61.4557 19.5698 61.4589C19.1987 61.4621 18.8319 61.5392 18.4909 61.6857C18.1499 61.8322 17.8415 62.0451 17.5837 62.312L6.4037 73.4921C5.87961 74.0169 5.58548 74.7284 5.586 75.4701C5.58652 76.2118 5.88166 76.9229 6.40649 77.447C6.93132 77.9711 7.64284 78.2652 8.38453 78.2647C9.12622 78.2641 9.83733 77.969 10.3614 77.4442L21.5358 66.2642ZM29.9208 74.6492C30.1807 74.3897 30.3869 74.0815 30.5277 73.7423C30.6685 73.4031 30.7411 73.0395 30.7413 72.6723C30.7416 72.305 30.6695 71.9413 30.5292 71.602C30.3889 71.2626 30.1831 70.9541 29.9236 70.6943C29.6641 70.4344 29.356 70.2282 29.0168 70.0874C28.6776 69.9466 28.314 69.874 27.9467 69.8738C27.5795 69.8735 27.2158 69.9456 26.8764 70.0859C26.537 70.2262 26.2286 70.432 25.9687 70.6915L20.3787 76.2815C19.8546 76.8063 19.5605 77.5178 19.561 78.2595C19.5615 79.0012 19.8567 79.7123 20.3815 80.2364C20.9063 80.7605 21.6178 81.0546 22.3595 81.0541C23.1012 81.0536 23.8123 80.7584 24.3364 80.2336L29.9208 74.6492ZM53.1026 37.7272C54.0194 37.7272 54.9273 37.5466 55.7744 37.1958C56.6215 36.8449 57.3912 36.3306 58.0395 35.6823C58.6879 35.0339 59.2021 34.2643 59.553 33.4172C59.9039 32.5701 60.0845 31.6622 60.0845 30.7453C60.0845 29.8284 59.9039 28.9205 59.553 28.0734C59.2021 27.2264 58.6879 26.4567 58.0395 25.8084C57.3912 25.16 56.6215 24.6457 55.7744 24.2949C54.9273 23.944 54.0194 23.7634 53.1026 23.7634C51.2508 23.7634 49.475 24.499 48.1656 25.8084C46.8562 27.1177 46.1207 28.8936 46.1207 30.7453C46.1207 32.597 46.8562 34.3729 48.1656 35.6823C49.475 36.9916 51.2508 37.7272 53.1026 37.7272Z" fill="#282222"/>
</svg>
