<svg width="40" height="38" viewBox="0 0 40 38" fill="none" xmlns="http://www.w3.org/2000/svg">
<path d="M38.2763 38L22.9872 23.4772C21.7665 24.4652 20.3626 25.2297 18.7756 25.7709C17.1885 26.312 15.5934 26.5826 13.9901 26.5826C10.0804 26.5826 6.77125 25.297 4.06275 22.7258C1.35425 20.153 0 17.0105 0 13.2983C0 9.586 1.35262 6.44195 4.05786 3.8661C6.76474 1.2887 10.0722 0 13.9803 0C17.8901 0 21.2008 1.28638 23.9126 3.85914C26.6243 6.4319 27.9802 9.57595 27.9802 13.2913C27.9802 14.9024 27.6799 16.4616 27.0793 17.9691C26.477 19.4766 25.6876 20.7661 24.711 21.8375L40 36.358L38.2763 38ZM13.9901 24.2611C17.2292 24.2611 19.9646 23.202 22.1962 21.0838C24.4261 18.9656 25.5411 16.3673 25.5411 13.289C25.5411 10.2122 24.4261 7.61469 22.1962 5.49649C19.9662 3.37829 17.2317 2.31919 13.9926 2.31919C10.7534 2.31919 8.01807 3.37829 5.78649 5.49649C3.55653 7.61469 2.44156 10.2122 2.44156 13.289C2.44156 16.3658 3.55653 18.9633 5.78649 21.0815C8.01644 23.1997 10.751 24.2611 13.9901 24.2611Z" fill="white"/>
</svg>
